<?xml version="1.0" standalone="no"?>
<!DOCTYPE svg PUBLIC "-//W3C//DTD SVG 20010904//EN"
 "http://www.w3.org/TR/2001/REC-SVG-20010904/DTD/svg10.dtd">
<svg version="1.0" xmlns="http://www.w3.org/2000/svg"
 width="700.000000pt" height="700.000000pt" viewBox="0 0 700.000000 700.000000"
 preserveAspectRatio="xMidYMid meet">
<metadata>
Created by potrace 1.14, written by Peter Selinger 2001-2017
</metadata>
<g transform="translate(0.000000,700.000000) scale(0.100000,-0.100000)"
fill="#000000" stroke="none">
<path d="M3338 3503 l-767 -1678 256 -3 c141 -1 258 -1 260 2 6 5 1522 3317
1529 3339 5 16 -11 17 -253 17 l-259 0 -766 -1677z"/>
<path d="M1500 4840 c-103 -13 -236 -53 -322 -96 -379 -191 -589 -673 -565
-1299 11 -282 57 -493 146 -681 167 -349 404 -517 788 -555 197 -20 433 14
587 84 282 129 478 418 555 821 60 309 46 693 -35 974 -116 403 -360 654 -712
733 -103 22 -331 32 -442 19z m342 -502 c77 -36 121 -72 165 -136 l37 -53 -29
-24 c-17 -13 -210 -176 -430 -363 -462 -393 -420 -376 -410 -162 10 225 45
385 114 532 53 111 126 179 234 219 81 30 242 23 319 -13z m318 -841 c0 -233
-34 -413 -109 -573 -67 -142 -172 -223 -315 -243 -124 -18 -245 13 -333 85
-46 38 -103 114 -102 136 0 12 836 726 852 727 4 1 7 -59 7 -132z"/>
<path d="M4830 4545 l0 -245 245 0 245 0 0 -1035 0 -1035 275 0 275 0 0 1280
0 1280 -520 0 -520 0 0 -245z"/>
</g>
</svg>
