<svg xmlns="http://www.w3.org/2000/svg" viewBox="0 0 186 20"><path d="M24.11,0H27.2L18,20H15Z"/><path d="M32,2h6.18V17.26H34.9V4.92H32Z"/><path d="M63.2,14.32a5,5,0,0,0,4.09-2l2.18,2.24a8.2,8.2,0,0,1-11.56,1l-.33-.29a7.5,7.5,0,0,1-2.27-5.6A7.56,7.56,0,0,1,57.63,4a7.82,7.82,0,0,1,5.66-2.27,8,8,0,0,1,6.26,2.85L67.44,7a4.91,4.91,0,0,0-4-2,4.67,4.67,0,0,0-3.29,1.25A4.31,4.31,0,0,0,58.8,9.66a4.57,4.57,0,0,0,1.31,3.4A4.17,4.17,0,0,0,63.2,14.32Z"/><path d="M88.24,15.22a8.27,8.27,0,0,1-11.36,0,7.52,7.52,0,0,1-2.31-5.6A7.53,7.53,0,0,1,76.88,4,8.29,8.29,0,0,1,88.24,4a7.52,7.52,0,0,1,2.3,5.6A7.51,7.51,0,0,1,88.24,15.22ZM87.08,9.64a5,5,0,0,0-1.31-3.48,4.29,4.29,0,0,0-6.06-.35,4,4,0,0,0-.36.35A5,5,0,0,0,78,9.64a4.92,4.92,0,0,0,1.31,3.45,4.33,4.33,0,0,0,6.11.31c.1-.1.21-.2.31-.31a5,5,0,0,0,1.3-3.45Z"/><path d="M109.67,7.65,105.56,16h-2L99.44,7.65v9.57H96.05V2h4.59l3.94,8.35L108.52,2h4.6v15.2h-3.45Z"/><path d="M127.65,17.23H121V2h5.91a8.55,8.55,0,0,1,2.66.37,3.89,3.89,0,0,1,1.69,1,4,4,0,0,1,1,2.63,3.14,3.14,0,0,1-1.15,2.63c-.17.13-.36.26-.55.38l-.54.25a4,4,0,0,1,2.25,1.27,3.52,3.52,0,0,1,.83,2.4,4.1,4.1,0,0,1-1.08,2.81Q130.8,17.23,127.65,17.23Zm-3.28-9H126a5.34,5.34,0,0,0,2.1-.31,1.31,1.31,0,0,0,.65-1.31,1.36,1.36,0,0,0-.65-1.32,5,5,0,0,0-2.14-.32h-1.62Zm0,6.18h2.32a5.29,5.29,0,0,0,2.19-.36,1.43,1.43,0,0,0,.72-1.42,1.34,1.34,0,0,0-.77-1.39,6.46,6.46,0,0,0-2.47-.34h-2Z"/><path d="M140,2h3.39V17.23H140Z"/><path d="M161.65,2H165V17.23h-3.39L154.42,7.7v9.53H151V2h3.17l7.47,9.79Z"/><path d="M184,2V5h-7.58V8.18h6.81v2.89h-6.81v3.16h7.82v3H173V2Z"/><path d="M11.59,3.8A5.5,5.5,0,0,0,6.85,1.65,5.52,5.52,0,0,0,2.12,3.8,9.54,9.54,0,0,0,.55,9.54a9.47,9.47,0,0,0,1.57,5.75,5.49,5.49,0,0,0,4.73,2.14,5.5,5.5,0,0,0,4.74-2.14,9.58,9.58,0,0,0,1.57-5.74A9.61,9.61,0,0,0,11.59,3.8Zm-7,2.08A2.36,2.36,0,0,1,6.85,4.45,2.4,2.4,0,0,1,9.09,5.82l-5.17,4.4V9.57A8.07,8.07,0,0,1,4.61,5.88ZM9.1,13.25a2.37,2.37,0,0,1-2.25,1.39,2.36,2.36,0,0,1-2.24-1.38L9.79,8.87v.69A7.94,7.94,0,0,1,9.1,13.25Z"/></svg>