<svg xmlns="http://www.w3.org/2000/svg" xmlns:xlink="http://www.w3.org/1999/xlink" viewBox="0 0 48.32 43.49"><defs><radialGradient id="a" cx="-248.91" cy="1085.24" r="2.42" gradientTransform="matrix(6.9, 8.01, 8.02, -6.91, -6959.21, 9507.82)" gradientUnits="userSpaceOnUse"><stop offset="0.63" stop-color="#3d35b1"/><stop offset="0.85" stop-color="#6553c9"/><stop offset="1" stop-color="#7660d3"/></radialGradient><linearGradient id="b" x1="-2.3" y1="-601.3" x2="33.94" y2="-637.54" gradientTransform="matrix(1, 0, 0, -1, 0, -599)" gradientUnits="userSpaceOnUse"><stop offset="0" stop-color="#0fafff"/><stop offset="1" stop-color="#2764e7"/></linearGradient></defs><path d="M48.32,25.36A18.13,18.13,0,1,0,37.66,41.88c3,.7,6.32,1.31,7.82,1.58a2.42,2.42,0,0,0,2.8-2,2.37,2.37,0,0,0,0-.88c-.49-2.54-1-5.08-1.65-7.59a18.19,18.19,0,0,0,1.7-7.68M30.24,36.24h0Z" fill-rule="evenodd" fill="url(#a)"/><path d="M0,18.12A18.13,18.13,0,1,1,10.66,34.63c-3,.7-6.32,1.31-7.82,1.58a2.41,2.41,0,0,1-2.79-2,2.37,2.37,0,0,1,0-.88q.74-3.81,1.65-7.59A18.14,18.14,0,0,1,0,18.12M18.08,29h0Z" fill-rule="evenodd" fill="url(#b)"/></svg>