<svg xmlns="http://www.w3.org/2000/svg" xmlns:xlink="http://www.w3.org/1999/xlink" viewBox="0 0 47.6 56"><defs><linearGradient id="a" x1="10.34" y1="-1028.62" x2="41.28" y2="-1087.06" gradientTransform="matrix(1, 0, 0, -1, 0, -1033)" gradientUnits="userSpaceOnUse"><stop offset="0" stop-color="#1ec8b0"/><stop offset="1" stop-color="#2764e7"/></linearGradient><linearGradient id="b" x1="21.04" y1="-1042.27" x2="33.91" y2="-1096.61" gradientTransform="matrix(1, 0, 0, -1, 0, -1033)" gradientUnits="userSpaceOnUse"><stop offset="0.53" stop-color="#ff6ce8" stop-opacity="0"/><stop offset="1" stop-color="#ff6ce8"/></linearGradient></defs><path d="M28,0a7,7,0,0,0-7,7V8.4H13.65A5.25,5.25,0,0,0,8.4,13.65h0V21H7A7,7,0,0,0,7,35H8.4v7.35a5.25,5.25,0,0,0,5.25,5.25H21V49a7,7,0,0,0,14,0V47.6h7.35a5.25,5.25,0,0,0,5.25-5.25h0V33.6H43.4a5.6,5.6,0,1,1,0-11.2h4.2V13.65A5.25,5.25,0,0,0,42.35,8.4H35V7a7,7,0,0,0-7-7" fill="url(#a)"/><path d="M28,0a7,7,0,0,0-7,7V8.4H13.65A5.25,5.25,0,0,0,8.4,13.65h0V21H7A7,7,0,0,0,7,35H8.4v7.35a5.25,5.25,0,0,0,5.25,5.25H21V49a7,7,0,0,0,14,0V47.6h7.35a5.25,5.25,0,0,0,5.25-5.25h0V33.6H43.4a5.6,5.6,0,1,1,0-11.2h4.2V13.65A5.25,5.25,0,0,0,42.35,8.4H35V7a7,7,0,0,0-7-7" fill-opacity="0.7" fill="url(#b)"/></svg>