<svg xmlns="http://www.w3.org/2000/svg" xmlns:xlink="http://www.w3.org/1999/xlink" viewBox="0 0 48 45.6"><defs><linearGradient id="a" x1="33.42" y1="-1469.22" x2="47.66" y2="-1484.39" gradientTransform="matrix(1, 0, 0, -1, 0, -1447.4)" gradientUnits="userSpaceOnUse"><stop offset="0.13" stop-color="#7a41dc"/><stop offset="1" stop-color="#5b2ab5"/></linearGradient><radialGradient id="b" cx="-869.27" cy="641.93" r="1.2" gradientTransform="matrix(8.7, -0.01, -0.02, -22.14, 7604.03, 14233.86)" gradientUnits="userSpaceOnUse"><stop offset="0.43" stop-color="#3b148a"/><stop offset="1" stop-color="#3b148a" stop-opacity="0"/></radialGradient><linearGradient id="c" x1="2.22" y1="-1469.22" x2="16.46" y2="-1484.39" gradientTransform="matrix(1, 0, 0, -1, 0, -1447.4)" gradientUnits="userSpaceOnUse"><stop offset="0.13" stop-color="#9c6cfe"/><stop offset="1" stop-color="#7a41dc"/></linearGradient><radialGradient id="d" cx="-1071.11" cy="818.69" r="1.2" gradientTransform="matrix(-11.03, -0.01, -0.02, 28.08, -11780.75, -22968.69)" xlink:href="#b"/><linearGradient id="e" x1="17.37" y1="-1468.84" x2="33.42" y2="-1488.06" gradientTransform="matrix(1, 0, 0, -1, 0, -1447.4)" gradientUnits="userSpaceOnUse"><stop offset="0.13" stop-color="#bd96ff"/><stop offset="1" stop-color="#9c6cfe"/></linearGradient><linearGradient id="f" x1="16.49" y1="-1466.13" x2="41.15" y2="-1500.7" gradientTransform="matrix(1, 0, 0, -1, 0, -1447.4)" gradientUnits="userSpaceOnUse"><stop offset="0" stop-color="#885edb" stop-opacity="0"/><stop offset="1" stop-color="#e362f8"/></linearGradient><linearGradient id="g" x1="36.73" y1="-1451.22" x2="42.85" y2="-1460.99" xlink:href="#a"/><linearGradient id="h" x1="5.53" y1="-1451.22" x2="11.65" y2="-1460.99" xlink:href="#c"/><linearGradient id="i" x1="20.56" y1="-1449.1" x2="27.9" y2="-1460.82" xlink:href="#e"/></defs><path d="M39.87,42A8.42,8.42,0,0,0,48,33.6V21.9a5.1,5.1,0,0,0-4.09-5,4.87,4.87,0,0,0-1-.1H36.3a4.81,4.81,0,0,0-1,.1,5.1,5.1,0,0,0-4.09,5V33.6A8.38,8.38,0,0,0,35.65,41a8.27,8.27,0,0,0,3.92,1h.3" fill="url(#a)"/><path d="M39.87,42A8.42,8.42,0,0,0,48,33.6V21.9a5.1,5.1,0,0,0-4.09-5,4.87,4.87,0,0,0-1-.1H36.3a4.81,4.81,0,0,0-1,.1,5.1,5.1,0,0,0-4.09,5V33.6A8.38,8.38,0,0,0,35.65,41a8.27,8.27,0,0,0,3.92,1h.3" fill-opacity="0.5" fill="url(#b)"/><path d="M8.67,42a8.42,8.42,0,0,0,8.13-8.4V21.9a5.1,5.1,0,0,0-4.09-5,4.87,4.87,0,0,0-1-.1H5.1a4.81,4.81,0,0,0-1,.1A5.1,5.1,0,0,0,0,21.9V33.6A8.38,8.38,0,0,0,4.45,41a8.27,8.27,0,0,0,3.92,1h.3" fill="url(#c)"/><path d="M8.67,42a8.42,8.42,0,0,0,8.13-8.4V21.9a5.1,5.1,0,0,0-4.09-5,4.87,4.87,0,0,0-1-.1H5.1a4.81,4.81,0,0,0-1,.1A5.1,5.1,0,0,0,0,21.9V33.6A8.38,8.38,0,0,0,4.45,41a8.27,8.27,0,0,0,3.92,1h.3" fill-opacity="0.5" fill="url(#d)"/><path d="M18.3,16.8a5.1,5.1,0,0,0-5.1,5.1V34.8a10.8,10.8,0,1,0,21.6,0V21.9a5.1,5.1,0,0,0-5.1-5.1Z" fill="url(#e)"/><path d="M18.3,16.8a5.1,5.1,0,0,0-5.1,5.1V34.8a10.8,10.8,0,1,0,21.6,0V21.9a5.1,5.1,0,0,0-5.1-5.1Z" fill="url(#f)"/><path d="M39.6,2.4a6,6,0,1,0,6,6,6,6,0,0,0-6-6" fill="url(#g)"/><path d="M8.4,2.4a6,6,0,1,0,6,6,6,6,0,0,0-6-6" fill="url(#h)"/><path d="M16.8,7.2A7.2,7.2,0,1,1,24,14.4a7.2,7.2,0,0,1-7.2-7.2" fill="url(#i)"/></svg>