<svg xmlns="http://www.w3.org/2000/svg" xmlns:xlink="http://www.w3.org/1999/xlink" viewBox="0 0 50 48.15"><defs><linearGradient id="a" x1="28.08" y1="-646.56" x2="20.31" y2="-606.91" gradientTransform="matrix(1, 0, 0, -1, 0, -606.79)" gradientUnits="userSpaceOnUse"><stop offset="0" stop-color="#6d37cd"/><stop offset="1" stop-color="#ea71ef"/></linearGradient><linearGradient id="b" x1="45.37" y1="-648.68" x2="40.7" y2="-617.71" gradientTransform="matrix(1, 0, 0, -1, 0, -606.79)" gradientUnits="userSpaceOnUse"><stop offset="0" stop-color="#e23cb4"/><stop offset="1" stop-color="#ea71ef"/></linearGradient><linearGradient id="c" x1="-2.33" y1="-636.76" x2="22.46" y2="-651.42" gradientTransform="matrix(1, 0, 0, -1, 0, -606.79)" gradientUnits="userSpaceOnUse"><stop offset="0" stop-color="#36dff1"/><stop offset="1" stop-color="#0078d4"/></linearGradient></defs><path d="M18.52,6.48a6.48,6.48,0,0,1,13,0V41.67a6.48,6.48,0,0,1-13,0Z" fill="url(#a)"/><path d="M37,17.59a6.48,6.48,0,1,1,13,0V41.67a6.48,6.48,0,1,1-13,0Z" fill="url(#b)"/><path d="M6.48,22.22A6.48,6.48,0,0,0,0,28.7v13a6.48,6.48,0,0,0,13,0v-13a6.48,6.48,0,0,0-6.48-6.48" fill="url(#c)"/></svg>