<svg xmlns="http://www.w3.org/2000/svg" xmlns:xlink="http://www.w3.org/1999/xlink" viewBox="0 0 54.49 38.14"><defs><radialGradient id="a" cx="-916.8" cy="965.02" r="1.36" gradientTransform="matrix(-10.36, 31.61, -62.38, -20.45, 50708.02, 48713.88)" gradientUnits="userSpaceOnUse"><stop offset="0.08" stop-color="#f08af4"/><stop offset="0.39" stop-color="#9c6cfe"/><stop offset="1" stop-color="#4e44db"/></radialGradient><linearGradient id="b" x1="32.08" y1="-1028.71" x2="54.48" y2="-1027.91" gradientTransform="translate(54.49 -1009) rotate(180)" gradientUnits="userSpaceOnUse"><stop offset="0" stop-color="#312a9a"/><stop offset="1" stop-color="#312a9a" stop-opacity="0"/></linearGradient><radialGradient id="c" cx="-934.04" cy="951.74" r="1.36" gradientTransform="matrix(-31.06, 29.63, -62.2, -65.2, 30240.14, 89734.79)" gradientUnits="userSpaceOnUse"><stop offset="0" stop-color="#f08af4"/><stop offset="0.34" stop-color="#9c6cfe"/><stop offset="1" stop-color="#4e44db"/></radialGradient><linearGradient id="d" x1="15.63" y1="-1028.07" x2="19.33" y2="-1042.62" gradientTransform="translate(54.49 -1009) rotate(180)" gradientUnits="userSpaceOnUse"><stop offset="0" stop-color="#3b148a"/><stop offset="1" stop-color="#4b20a0"/></linearGradient></defs><path d="M29.29,19.07,7.17,3.64A4.56,4.56,0,0,0,0,7.39V30.76A4.56,4.56,0,0,0,7.17,34.5Z" fill="url(#a)"/><path d="M29.29,19.07,7.17,3.64A4.56,4.56,0,0,0,0,7.39V30.76A4.56,4.56,0,0,0,7.17,34.5Z" fill-opacity="0.75" fill="url(#b)"/><path d="M54.49,8.51A8.51,8.51,0,0,0,46,0H26.22a8.51,8.51,0,0,0-8.51,8.51V29.63a8.51,8.51,0,0,0,8.51,8.51H46a8.51,8.51,0,0,0,8.52-8.51h0Z" fill="url(#c)"/><path d="M49,27.24a5.44,5.44,0,0,0-5.45-5.44H30a5.45,5.45,0,1,0,0,10.89H43.59A5.45,5.45,0,0,0,49,27.24" opacity="0.5" fill="url(#d)" style="isolation:isolate"/><path d="M43.56,24.52a2.81,2.81,0,0,1,0,5.61H38a2.81,2.81,0,0,1,0-5.61ZM30,30.13a2.81,2.81,0,1,1,2.76-2.81A2.79,2.79,0,0,1,30,30.13" fill="#babaff"/></svg>